<svg version="1.1" xmlns="http://www.w3.org/2000/svg" xmlns:xlink="http://www.w3.org/1999/xlink" x="0px" y="0px"
	 viewBox="0 0 220 180" style="enable-background:new 0 0 220 180;" xml:space="preserve">
<style type="text/css">
	.st0{fill-rule:evenodd;clip-rule:evenodd;fill:#FFFFFF;}
	.st1{fill:#FFFFFF;filter:url(#Adobe_OpacityMaskFilter);}
	.st2{fill-rule:evenodd;clip-rule:evenodd;}
	.st3{mask:url(#path-2-outside-1_3714_18071_1_);fill:#777777;fill-opacity:0.15;}
	.st4{fill-rule:evenodd;clip-rule:evenodd;filter:url(#Adobe_OpacityMaskFilter_1_);}
	.st5{mask:url(#mask0_3714_18071_1_);}
	.st6{fill-rule:evenodd;clip-rule:evenodd;fill-opacity:0.1;}
</style>
<path class="st0" d="M0,0h220v180H0V0z M191.5,13h-163c-4.7,0-8.5,3.8-8.5,8.5c0,42.9,30.3,79.2,70.9,88.1c0.1,0.6,0.1,1.3,0.3,2
	l5.2,21.5H82.2c-4.9,0-9.2,3.3-10.5,8l-3.3,12.4c-0.9,3.3-0.2,6.7,1.9,9.4c2.1,2.7,5.2,4.2,8.6,4.2h64.3c3.4,0,6.5-1.5,8.6-4.2
	c2.1-2.7,2.7-6.1,1.8-9.4l-3.3-12.4c-1.3-4.7-5.6-8-10.5-8h-13.3l5.3-21.4c0.2-1,0.4-1.9,0.4-2.7c39-9.9,67.8-45.3,67.8-87.4
	C200,16.8,196.2,13,191.5,13z"/>
<defs>
	<filter id="Adobe_OpacityMaskFilter" filterUnits="userSpaceOnUse" x="16" y="9" width="188" height="162">
		<feColorMatrix  type="matrix" values="1 0 0 0 0  0 1 0 0 0  0 0 1 0 0  0 0 0 1 0"/>
	</filter>
</defs>
<mask maskUnits="userSpaceOnUse" x="16" y="9" width="188" height="162" id="path-2-outside-1_3714_18071_1_">
	<rect x="16" y="9" class="st1" width="188" height="162"/>
	<path class="st2" d="M28.5,13h163c4.7,0,8.5,3.8,8.5,8.5c0,41.1-27.5,75.8-65.2,86.6c-1.6,0.5-2.7,1.9-3.1,3.5l-4,16.5
		c-0.6,2.5,1.3,5,3.9,5h8.2c4.9,0,9.2,3.3,10.5,8l3.3,12.4c0.9,3.3,0.2,6.7-1.8,9.4c-2.1,2.7-5.2,4.2-8.6,4.2H78.9
		c-3.4,0-6.6-1.5-8.6-4.2c-2.1-2.7-2.8-6.1-1.9-9.4l3.3-12.4c1.3-4.7,5.6-8,10.5-8h9.1c2.6,0,4.5-2.4,3.9-4.9l-4-16.6
		c-0.3-1.2-1.1-2.1-2.3-2.4c-39.6-9.6-69-45.4-69-87.6C20,16.8,23.8,13,28.5,13z"/>
</mask>
<path class="st3" d="M150.3,141.1l3.9-1l0,0L150.3,141.1z M153.6,153.4l3.9-1l0,0L153.6,153.4z M151.8,162.8l3.1,2.5l0,0l0,0
	L151.8,162.8z M70.3,162.8l3.2-2.4l0,0l0,0L70.3,162.8z M68.4,153.4l-3.9-1l0,0L68.4,153.4z M71.7,141.1l-3.9-1.1l0,0L71.7,141.1z
	 M95.2,128.1l-3.9,0.9L95.2,128.1z M127.7,128.1l-3.9-1L127.7,128.1z M89,109.1l0.9-3.9L89,109.1z M134.8,108.2l1.1,3.8L134.8,108.2
	z M191.5,9h-163v8h163V9z M204,21.5c0-6.9-5.6-12.5-12.5-12.5v8c2.5,0,4.5,2,4.5,4.5H204z M135.9,112c39.3-11.3,68.1-47.5,68.1-90.5
	h-8c0,39.3-26.3,72.5-62.3,82.8L135.9,112z M131.6,129.1l4-16.5l-7.8-1.9l-4,16.5L131.6,129.1z M139.8,129.1h-8.2v8h8.2V129.1z
	 M154.1,140c-1.8-6.5-7.6-10.9-14.4-10.9v8c3.1,0,5.8,2.1,6.6,5L154.1,140z M157.5,152.4l-3.3-12.4l-7.7,2.1l3.3,12.4L157.5,152.4z
	 M155,165.2c2.8-3.7,3.7-8.4,2.5-12.9l-7.7,2.1c0.6,2.1,0.1,4.2-1.1,5.9L155,165.2z M143.2,171c4.6,0,8.9-2.1,11.8-5.7l-6.3-4.9
	c-1.4,1.7-3.3,2.7-5.5,2.7V171z M78.9,171h64.3v-8H78.9V171z M67.1,165.2c2.8,3.7,7.2,5.8,11.8,5.8v-8c-2.2,0-4.2-1-5.4-2.6
	L67.1,165.2z M64.5,152.4c-1.2,4.4-0.3,9.2,2.6,12.9l6.3-4.9c-1.3-1.7-1.7-3.8-1.2-5.9L64.5,152.4z M67.9,140l-3.3,12.4l7.7,2.1
	l3.3-12.4L67.9,140z M82.2,129.1c-6.6,0-12.6,4.4-14.4,10.9l7.7,2.1c0.8-3,3.6-5,6.6-5V129.1z M91.3,129.1h-9.1v8h9.1V129.1z
	 M87.3,112.5l4,16.6l7.8-1.9l-4-16.6L87.3,112.5z M16,21.5c0,44.1,30.7,81.5,72,91.5l1.9-7.8C52.1,96.1,24,61.8,24,21.5H16z M28.5,9
	C21.6,9,16,14.6,16,21.5h8c0-2.5,2-4.5,4.5-4.5V9z M91.3,137.1c5.2,0,9-4.9,7.8-9.9l-7.8,1.9V137.1z M123.8,127.2
	c-1.2,5,2.6,9.9,7.8,9.9v-8L123.8,127.2z M95.1,110.7c-0.5-2.4-2.3-4.7-5.2-5.4L88,113c-0.3-0.1-0.5-0.2-0.6-0.3
	c-0.1-0.1-0.1-0.2-0.1-0.3L95.1,110.7z M133.7,104.3c-3.3,0.9-5.2,3.8-5.8,6.3l7.8,1.9c0.1-0.3,0.2-0.4,0.3-0.5
	c0.1-0.1,0.1-0.1,0-0.1L133.7,104.3z"/>
<defs>
	<filter id="Adobe_OpacityMaskFilter_1_" filterUnits="userSpaceOnUse" x="117.7" y="13" width="82.3" height="154">
		<feColorMatrix  type="matrix" values="1 0 0 0 0  0 1 0 0 0  0 0 1 0 0  0 0 0 1 0"/>
	</filter>
</defs>
<mask maskUnits="userSpaceOnUse" x="117.7" y="13" width="82.3" height="154" id="mask0_3714_18071_1_">
	<path class="st4" d="M28.5,13h163c4.7,0,8.5,3.8,8.5,8.5c0,41.1-27.5,75.8-65.2,86.6c-1.6,0.5-2.7,1.9-3.1,3.5l-4,16.5
		c-0.6,2.5,1.3,5,3.9,5h8.2c4.9,0,9.2,3.3,10.5,8l3.3,12.4c0.9,3.3,0.2,6.7-1.8,9.4c-2.1,2.7-5.2,4.2-8.6,4.2H78.9
		c-3.4,0-6.6-1.5-8.6-4.2c-2.1-2.7-2.8-6.1-1.9-9.4l3.3-12.4c1.3-4.7,5.6-8,10.5-8h9.1c2.6,0,4.5-2.4,3.9-4.9l-4-16.6
		c-0.3-1.2-1.1-2.1-2.3-2.4c-39.6-9.6-69-45.4-69-87.6C20,16.8,23.8,13,28.5,13z"/>
</mask>
<g class="st5">
	<path class="st6" d="M125.2,167h18c3.4,0,6.5-1.5,8.6-4.2c2.1-2.7,2.7-6.1,1.8-9.4l-3.3-12.4c-1.3-4.7-5.6-8-10.5-8h-8.2
		c-2.6,0-4.5-2.4-3.9-5l4-16.5c0.4-1.6,1.5-3,3.1-3.5C172.5,97.4,200,62.7,200,21.5c0-4.7-3.8-8.5-8.5-8.5h-19
		c4.7,0,8.5,3.8,8.5,8.5c0,37.5-22.9,69.6-55.4,83.2c-1.2,0.5-2.1,1.5-2.4,2.7l-5.4,20.6c-0.7,2.5,1.3,5,3.9,5h0.1
		c4.9,0,9.2,3.3,10.5,8l3.3,12.4c0.9,3.3,0.2,6.7-1.8,9.4C131.7,165.5,128.6,167,125.2,167z"/>
</g>
</svg>
